<?xml version="1.0" encoding="UTF-8" standalone="no"?>
<!-- Created with Inkscape (http://www.inkscape.org/) -->

<svg
   xmlns:dc="http://purl.org/dc/elements/1.1/"
   xmlns:cc="http://creativecommons.org/ns#"
   xmlns:rdf="http://www.w3.org/1999/02/22-rdf-syntax-ns#"
   xmlns:svg="http://www.w3.org/2000/svg"
   xmlns="http://www.w3.org/2000/svg"
   xmlns:sodipodi="http://sodipodi.sourceforge.net/DTD/sodipodi-0.dtd"
   xmlns:inkscape="http://www.inkscape.org/namespaces/inkscape"
   width="145mm"
   height="145mm"
   viewBox="0 0 145 145"
   version="1.1"
   id="svg8"
   inkscape:version="0.92.4 (5da689c313, 2019-01-14)"
   sodipodi:docname="rechargePressed.svg">
  <defs
     id="defs2" />
  <sodipodi:namedview
     id="base"
     pagecolor="#ffffff"
     bordercolor="#666666"
     borderopacity="1.0"
     inkscape:pageopacity="0.0"
     inkscape:pageshadow="2"
     inkscape:zoom="0.98994949"
     inkscape:cx="71.244421"
     inkscape:cy="148.10373"
     inkscape:document-units="mm"
     inkscape:current-layer="layer1"
     showgrid="false"
     inkscape:window-width="1920"
     inkscape:window-height="1001"
     inkscape:window-x="-9"
     inkscape:window-y="-9"
     inkscape:window-maximized="1" />
  <metadata
     id="metadata5">
    <rdf:RDF>
      <cc:Work
         rdf:about="">
        <dc:format>image/svg+xml</dc:format>
        <dc:type
           rdf:resource="http://purl.org/dc/dcmitype/StillImage" />
        <dc:title></dc:title>
      </cc:Work>
    </rdf:RDF>
  </metadata>
  <g
     inkscape:label="Capa 1"
     inkscape:groupmode="layer"
     id="layer1"
     transform="translate(-27.958336,-124.04167)">
    <circle
       style="fill:#646464;fill-opacity:1;stroke:#ffffff;stroke-width:6.5;stroke-linecap:round;stroke-linejoin:round;stroke-miterlimit:4;stroke-dasharray:none;stroke-opacity:0.70183488;paint-order:normal"
       id="path815"
       cx="100.45834"
       cy="196.54167"
       r="68.791664" />
    <g
       id="g945"
       transform="rotate(-150,100.65565,196.12946)">
      <g
         inkscape:label="Capa 1"
         id="layer1-2"
         transform="translate(-4.3443522,-17.037204)">
        <g
           id="g2012"
           transform="translate(-13.162208,2.6666667e-6)">
          <g
             transform="translate(0,5e-6)"
             id="g2003" />
          <g
             id="g2019">
            <g
               id="g871">
              <path
                 sodipodi:nodetypes="sssssssss"
                 inkscape:connector-curvature="0"
                 style="fill:#d0d0d0;fill-opacity:1;stroke:#f1f1f1;stroke-width:3.4395833;stroke-linecap:round;stroke-linejoin:round;stroke-miterlimit:4;stroke-dasharray:none;stroke-opacity:1;paint-order:normal"
                 d="m 78.311133,188.33948 h 53.377737 c 4.18798,0 7.55952,3.37154 7.55952,7.55951 v 9.70815 c 0,4.18798 -3.37154,7.55952 -7.55952,7.55952 H 78.311133 c -4.187971,0 -7.559516,-3.37154 -7.559516,-7.55952 v -9.70815 c 0,-4.18797 3.371545,-7.55951 7.559516,-7.55951 z"
                 id="rect1990"
                 transform="translate(0,4.6666667e-6)" />
              <path
                 transform="translate(0,4.6666667e-6)"
                 sodipodi:nodetypes="scsscssss"
                 inkscape:connector-curvature="0"
                 style="fill:#d0d0d0;fill-opacity:1;stroke:#f1f1f1;stroke-width:3.4395833;stroke-linecap:round;stroke-linejoin:round;stroke-miterlimit:4;stroke-dasharray:none;stroke-opacity:1;paint-order:normal"
                 d="m 78.311133,188.33948 h 9.812807 c 0,0 -0.191296,3.37154 -0.191296,7.55951 v 9.70815 c 0,4.18798 0.191296,7.55952 0.191296,7.55952 h -9.812807 c -4.187971,0 -7.559516,-3.37154 -7.559516,-7.55952 v -9.70815 c 0,-4.18797 3.371545,-7.55951 7.559516,-7.55951 z"
                 id="path1995" />
            </g>
          </g>
        </g>
      </g>
      <g
         transform="translate(-4.3443522,-4.5567952)"
         id="g903"
         inkscape:label="Capa 1">
        <g
           transform="translate(-13.162208,2.6666667e-6)"
           id="g901">
          <g
             id="g889"
             transform="translate(0,5e-6)" />
          <g
             id="g899">
            <g
               id="g897">
              <path
                 transform="translate(0,4.6666667e-6)"
                 id="path891"
                 d="m 78.311133,188.33948 h 53.377737 c 4.18798,0 7.55952,3.37154 7.55952,7.55951 v 9.70815 c 0,4.18798 -3.37154,7.55952 -7.55952,7.55952 H 78.311133 c -4.187971,0 -7.559516,-3.37154 -7.559516,-7.55952 v -9.70815 c 0,-4.18797 3.371545,-7.55951 7.559516,-7.55951 z"
                 style="fill:#d0d0d0;fill-opacity:1;stroke:#f1f1f1;stroke-width:3.4395833;stroke-linecap:round;stroke-linejoin:round;stroke-miterlimit:4;stroke-dasharray:none;stroke-opacity:1;paint-order:normal"
                 inkscape:connector-curvature="0"
                 sodipodi:nodetypes="sssssssss" />
              <path
                 id="path893"
                 d="m 78.311133,188.33948 h 9.812807 c 0,0 -0.191296,3.37154 -0.191296,7.55951 v 9.70815 c 0,4.18798 0.191296,7.55952 0.191296,7.55952 h -9.812807 c -4.187971,0 -7.559516,-3.37154 -7.559516,-7.55952 v -9.70815 c 0,-4.18797 3.371545,-7.55951 7.559516,-7.55951 z"
                 style="fill:#d0d0d0;fill-opacity:1;stroke:#f1f1f1;stroke-width:3.4395833;stroke-linecap:round;stroke-linejoin:round;stroke-miterlimit:4;stroke-dasharray:none;stroke-opacity:1;paint-order:normal"
                 inkscape:connector-curvature="0"
                 sodipodi:nodetypes="scsscssss"
                 transform="translate(0,4.6666667e-6)" />
            </g>
          </g>
        </g>
      </g>
      <g
         inkscape:label="Capa 1"
         id="g919"
         transform="translate(-4.3443522,7.923606)">
        <g
           id="g917"
           transform="translate(-13.162208,2.6666667e-6)">
          <g
             transform="translate(0,5e-6)"
             id="g905" />
          <g
             id="g915">
            <g
               id="g913">
              <path
                 sodipodi:nodetypes="sssssssss"
                 inkscape:connector-curvature="0"
                 style="fill:#d0d0d0;fill-opacity:1;stroke:#f1f1f1;stroke-width:3.4395833;stroke-linecap:round;stroke-linejoin:round;stroke-miterlimit:4;stroke-dasharray:none;stroke-opacity:1;paint-order:normal"
                 d="m 78.311133,188.33948 h 53.377737 c 4.18798,0 7.55952,3.37154 7.55952,7.55951 v 9.70815 c 0,4.18798 -3.37154,7.55952 -7.55952,7.55952 H 78.311133 c -4.187971,0 -7.559516,-3.37154 -7.559516,-7.55952 v -9.70815 c 0,-4.18797 3.371545,-7.55951 7.559516,-7.55951 z"
                 id="path907"
                 transform="translate(0,4.6666667e-6)" />
              <path
                 transform="translate(0,4.6666667e-6)"
                 sodipodi:nodetypes="scsscssss"
                 inkscape:connector-curvature="0"
                 style="fill:#d0d0d0;fill-opacity:1;stroke:#f1f1f1;stroke-width:3.4395833;stroke-linecap:round;stroke-linejoin:round;stroke-miterlimit:4;stroke-dasharray:none;stroke-opacity:1;paint-order:normal"
                 d="m 78.311133,188.33948 h 9.812807 c 0,0 -0.191296,3.37154 -0.191296,7.55951 v 9.70815 c 0,4.18798 0.191296,7.55952 0.191296,7.55952 h -9.812807 c -4.187971,0 -7.559516,-3.37154 -7.559516,-7.55952 v -9.70815 c 0,-4.18797 3.371545,-7.55951 7.559516,-7.55951 z"
                 id="path909" />
            </g>
          </g>
        </g>
      </g>
    </g>
    <path
       inkscape:connector-curvature="0"
       id="path965"
       d="m 138.11852,157.17481 3.5704,-6.18413 -17.70715,4.74461 4.74464,17.70726 z"
       style="fill:none;stroke:#ffffff;stroke-width:3.7650001;stroke-linecap:round;stroke-linejoin:round;stroke-miterlimit:4;stroke-dasharray:none;stroke-opacity:1"
       sodipodi:nodetypes="ccccc" />
  </g>
  <g
     inkscape:groupmode="layer"
     id="layer2"
     inkscape:label="otra">
    <path
       transform="translate(-27.958336,-124.04167)"
       style="fill:#d0d0d0;fill-opacity:1;stroke:#ffffff;stroke-width:4.57083654;stroke-linecap:round;stroke-linejoin:round;stroke-miterlimit:4;stroke-dasharray:none;stroke-opacity:1;paint-order:normal"
       d="m 55.574218,168.77855 c -12.69722,21.99312 -6.226252,50.06045 14.818543,64.27429 l 4.108276,-7.11574 C 57.370251,214.00555 52.220543,190.94833 62.646999,172.86202 73.096583,154.78837 95.640205,147.71886 114.53916,156.58903 l 4.0827,-7.07143 C 95.80708,138.40754 68.285194,146.81543 55.574218,168.77855 Z m 80.939492,-7.48753 -4.19328,7.26298 c 12.96358,12.84382 15.65182,32.80733 6.54743,48.62277 -9.13882,15.80711 -27.78121,23.47191 -45.395708,18.66441 l -4.195869,7.26746 c 21.676087,6.95775 45.270247,-2.13958 56.664357,-21.8484 11.35222,-19.71912 7.42782,-44.68412 -9.42693,-59.96922 z"
       id="circle954"
       inkscape:connector-curvature="0"
       sodipodi:nodetypes="cccccccccccccc" />
    <path
       transform="translate(-27.958336,-124.04167)"
       style="fill:none;stroke:#ffffff;stroke-width:3.7650001;stroke-linecap:round;stroke-linejoin:round;stroke-miterlimit:4;stroke-dasharray:none;stroke-opacity:1"
       d="m 69.590947,234.44162 -3.570407,6.18412 17.707157,-4.74461 -4.744646,-17.70725 z"
       id="path963"
       inkscape:connector-curvature="0"
       sodipodi:nodetypes="ccccc" />
  </g>
  <g
     inkscape:groupmode="layer"
     id="layer3"
     inkscape:label="otra 1">
    <path
       transform="rotate(-150,76.528777,148.71836)"
       sodipodi:nodetypes="sccs"
       inkscape:connector-curvature="0"
       id="path1999"
       d="m 165.5728,200.81989 c 0,10.62784 -23.25609,12.34677 -33.88393,12.34677 v -24.96081 c 10.62784,0 33.88393,1.9862 33.88393,12.61404 z"
       style="fill:#d0d0d0;fill-opacity:1;stroke:#f1f1f1;stroke-width:3.4395833;stroke-linecap:round;stroke-linejoin:round;stroke-miterlimit:4;stroke-dasharray:none;stroke-opacity:1;paint-order:normal" />
    <path
       transform="rotate(-150,78.200833,142.47816)"
       style="fill:#d0d0d0;fill-opacity:1;stroke:#f1f1f1;stroke-width:3.4395833;stroke-linecap:round;stroke-linejoin:round;stroke-miterlimit:4;stroke-dasharray:none;stroke-opacity:1;paint-order:normal"
       d="m 165.5728,200.81989 c 0,10.62784 -23.25609,12.34677 -33.88393,12.34677 v -24.96081 c 10.62784,0 33.88393,1.9862 33.88393,12.61404 z"
       id="path895"
       inkscape:connector-curvature="0"
       sodipodi:nodetypes="sccs" />
    <path
       transform="rotate(-150,79.872891,136.23796)"
       sodipodi:nodetypes="sccs"
       inkscape:connector-curvature="0"
       id="path911"
       d="m 165.5728,200.81989 c 0,10.62784 -23.25609,12.34677 -33.88393,12.34677 v -24.96081 c 10.62784,0 33.88393,1.9862 33.88393,12.61404 z"
       style="fill:#d0d0d0;fill-opacity:1;stroke:#f1f1f1;stroke-width:3.4395833;stroke-linecap:round;stroke-linejoin:round;stroke-miterlimit:4;stroke-dasharray:none;stroke-opacity:1;paint-order:normal" />
  </g>
</svg>
