<?xml version="1.0" encoding="UTF-8" standalone="no"?>
<!-- Created with Inkscape (http://www.inkscape.org/) -->

<svg
   xmlns:dc="http://purl.org/dc/elements/1.1/"
   xmlns:cc="http://creativecommons.org/ns#"
   xmlns:rdf="http://www.w3.org/1999/02/22-rdf-syntax-ns#"
   xmlns:svg="http://www.w3.org/2000/svg"
   xmlns="http://www.w3.org/2000/svg"
   xmlns:sodipodi="http://sodipodi.sourceforge.net/DTD/sodipodi-0.dtd"
   xmlns:inkscape="http://www.inkscape.org/namespaces/inkscape"
   width="210mm"
   height="210mm"
   viewBox="0 0 210 210"
   version="1.1"
   id="svg8"
   inkscape:version="0.92.4 (5da689c313, 2019-01-14)"
   sodipodi:docname="oso.svg">
  <defs
     id="defs2" />
  <sodipodi:namedview
     id="base"
     pagecolor="#ffffff"
     bordercolor="#666666"
     borderopacity="1.0"
     inkscape:pageopacity="0.0"
     inkscape:pageshadow="2"
     inkscape:zoom="0.70710678"
     inkscape:cx="0.86010128"
     inkscape:cy="317.94201"
     inkscape:document-units="mm"
     inkscape:current-layer="layer1"
     showgrid="false"
     showguides="true"
     inkscape:guide-bbox="true"
     inkscape:window-width="960"
     inkscape:window-height="1001"
     inkscape:window-x="-9"
     inkscape:window-y="-9"
     inkscape:window-maximized="0" />
  <metadata
     id="metadata5">
    <rdf:RDF>
      <cc:Work
         rdf:about="">
        <dc:format>image/svg+xml</dc:format>
        <dc:type
           rdf:resource="http://purl.org/dc/dcmitype/StillImage" />
        <dc:title></dc:title>
      </cc:Work>
    </rdf:RDF>
  </metadata>
  <g
     inkscape:label="Capa 1"
     inkscape:groupmode="layer"
     id="layer1"
     transform="translate(0,-87)">
    <path
       id="path4530"
       style="fill:#c87137;fill-opacity:1;stroke:#542100;stroke-width:2.2650001;stroke-linecap:round;stroke-linejoin:round;stroke-miterlimit:4;stroke-dasharray:none;stroke-opacity:1"
       d="m 151.86023,249.29562 c 4.90862,-5.2695 1.60888,-14.12242 0,-22.79251 -2.1513,-4.38637 -2.80031,-8.39717 -7.7903,-13.49321 -0.0333,-12.96979 -1.37309,-24.63312 0,-39.00932 3.00925,-3.62784 5.59081,-7.25569 6.28361,-10.88353 4.85589,-9.30503 5.80739,-19.59389 0,-26.45834 -27.51038,-32.51778 -62.688379,-33.37309 -90.714289,0 -5.782334,6.88558 -4.855894,17.15331 0,26.45834 0.692803,3.62784 3.274359,7.25569 6.283611,10.88353 1.373093,14.3762 0.03331,26.03953 0,39.00932 -4.989988,5.09604 -5.639004,9.10684 -7.790304,13.49321 -1.608882,8.67009 -4.891901,17.50748 0,22.79251 28.422684,30.70682 65.807322,29.97306 93.727672,0 z"
       inkscape:connector-curvature="0"
       sodipodi:nodetypes="sccccssccccss" />
  </g>
</svg>
