<?xml version="1.0" encoding="UTF-8" standalone="no"?>
<!-- Created with Inkscape (http://www.inkscape.org/) -->

<svg
   xmlns:dc="http://purl.org/dc/elements/1.1/"
   xmlns:cc="http://creativecommons.org/ns#"
   xmlns:rdf="http://www.w3.org/1999/02/22-rdf-syntax-ns#"
   xmlns:svg="http://www.w3.org/2000/svg"
   xmlns="http://www.w3.org/2000/svg"
   xmlns:sodipodi="http://sodipodi.sourceforge.net/DTD/sodipodi-0.dtd"
   xmlns:inkscape="http://www.inkscape.org/namespaces/inkscape"
   width="232mm"
   height="232mm"
   viewBox="0 0 232 232"
   version="1.1"
   id="svg8"
   inkscape:version="0.92.4 (5da689c313, 2019-01-14)"
   sodipodi:docname="palanca.svg">
  <defs
     id="defs2">
    <marker
       inkscape:stockid="Arrow1Lstart"
       orient="auto"
       refY="0.0"
       refX="0.0"
       id="Arrow1Lstart"
       style="overflow:visible"
       inkscape:isstock="true">
      <path
         id="path845"
         d="M 0.0,0.0 L 5.0,-5.0 L -12.5,0.0 L 5.0,5.0 L 0.0,0.0 z "
         style="fill-rule:evenodd;stroke:#000000;stroke-width:1.0pt"
         transform="scale(0.8) translate(12.5,0)" />
    </marker>
  </defs>
  <sodipodi:namedview
     id="base"
     pagecolor="#ffffff"
     bordercolor="#666666"
     borderopacity="1.0"
     inkscape:pageopacity="0.0"
     inkscape:pageshadow="2"
     inkscape:zoom="0.49497475"
     inkscape:cx="302.10611"
     inkscape:cy="572.72432"
     inkscape:document-units="mm"
     inkscape:current-layer="layer1"
     showgrid="false"
     inkscape:window-width="1920"
     inkscape:window-height="1001"
     inkscape:window-x="-9"
     inkscape:window-y="-9"
     inkscape:window-maximized="1"
     inkscape:lockguides="true"
     showguides="true"
     inkscape:guide-bbox="true" />
  <metadata
     id="metadata5">
    <rdf:RDF>
      <cc:Work
         rdf:about="">
        <dc:format>image/svg+xml</dc:format>
        <dc:type
           rdf:resource="http://purl.org/dc/dcmitype/StillImage" />
        <dc:title />
      </cc:Work>
    </rdf:RDF>
  </metadata>
  <g
     inkscape:label="Capa 1"
     inkscape:groupmode="layer"
     id="layer1"
     transform="translate(-42.57643,-50.696265)">
    <g
       id="g2104"
       transform="matrix(0.82424445,0,0,0.82424445,154.30164,107.0733)">
      <path
         sodipodi:nodetypes="ccccccccccccc"
         inkscape:connector-curvature="0"
         id="path1969"
         d="m -88.385637,7.4086489 6.746329,-25.1776379 7.116478,-25.503509 c 3.224734,-12.4966 19.001663,-11.613326 24.532283,-4.435658 l 133.10022,241.611646 21.473277,13.42277 1.06908,-5.87993 -14.967087,-12.82894 -133.63476,-242.680727 c -16.694403,-18.186522 -36.066304,-6.284529 -42.228586,8.018086 l -9.087164,30.468724 -1.069078,18.1743289 z"
         style="fill:#ff0000;fill-opacity:1;stroke:#800000;stroke-width:2;stroke-linecap:butt;stroke-linejoin:miter;stroke-miterlimit:4;stroke-dasharray:none;stroke-opacity:1" />
      <path
         style="fill:#797979;fill-opacity:1;stroke:#000000;stroke-width:2;stroke-linecap:butt;stroke-linejoin:miter;stroke-miterlimit:4;stroke-dasharray:none;stroke-opacity:1"
         d="m -88.385637,7.4086489 6.746329,-25.1776379 -12.626259,2.192462 -1.069078,18.1743289 z"
         id="path1971"
         inkscape:connector-curvature="0"
         sodipodi:nodetypes="ccccc" />
      <path
         style="fill:#797979;fill-opacity:1;stroke:#000000;stroke-width:2;stroke-linecap:butt;stroke-linejoin:miter;stroke-miterlimit:4;stroke-dasharray:none;stroke-opacity:1"
         d="m 83.109673,193.90349 21.473277,13.42277 1.06908,-5.87993 -14.967087,-12.82894 z"
         id="path1985"
         inkscape:connector-curvature="0"
         sodipodi:nodetypes="ccccc" />
      <path
         style="fill:#ff0000;fill-opacity:1;stroke:#800000;stroke-width:2;stroke-linecap:butt;stroke-linejoin:miter;stroke-miterlimit:4;stroke-dasharray:none;stroke-opacity:1"
         d="m -88.385637,7.4086489 6.746329,-25.1776379 7.116478,-25.503509 c 3.224734,-12.4966 19.001663,-11.613326 24.532283,-4.435658 l 133.10022,241.611646 21.473277,13.42277 1.06908,-5.87993 -14.967087,-12.82894 -133.63476,-242.680727 c -16.694403,-18.186522 -36.066304,-6.284529 -42.228586,8.018086 l -9.087164,30.468724 -1.069078,18.1743289 z"
         id="path1987"
         inkscape:connector-curvature="0"
         sodipodi:nodetypes="ccccccccccccc" />
      <path
         sodipodi:nodetypes="ccccc"
         inkscape:connector-curvature="0"
         id="path1989"
         d="m -88.385637,7.4086489 6.746329,-25.1776379 -12.626259,2.192462 -1.069078,18.1743289 z"
         style="fill:#797979;fill-opacity:1;stroke:#000000;stroke-width:2;stroke-linecap:butt;stroke-linejoin:miter;stroke-miterlimit:4;stroke-dasharray:none;stroke-opacity:1" />
      <path
         sodipodi:nodetypes="ccccc"
         inkscape:connector-curvature="0"
         id="path1991"
         d="m 83.109673,193.90349 21.473277,13.42277 1.06908,-5.87993 -14.967087,-12.82894 z"
         style="fill:#797979;fill-opacity:1;stroke:#000000;stroke-width:2;stroke-linecap:butt;stroke-linejoin:miter;stroke-miterlimit:4;stroke-dasharray:none;stroke-opacity:1" />
      <path
         sodipodi:nodetypes="ccccccccccccc"
         inkscape:connector-curvature="0"
         id="path1993"
         d="m -88.385637,7.4086489 6.746329,-25.1776379 7.116478,-25.503509 c 3.224734,-12.4966 19.001663,-11.613326 24.532283,-4.435658 l 133.10022,241.611646 21.473277,13.42277 1.06908,-5.87993 -14.967087,-12.82894 -133.63476,-242.680727 c -16.694403,-18.186522 -36.066304,-6.284529 -42.228586,8.018086 l -9.087164,30.468724 -1.069078,18.1743289 z"
         style="fill:#ff0000;fill-opacity:1;stroke:#800000;stroke-width:2;stroke-linecap:butt;stroke-linejoin:miter;stroke-miterlimit:4;stroke-dasharray:none;stroke-opacity:1" />
      <path
         style="fill:#797979;fill-opacity:1;stroke:#000000;stroke-width:2;stroke-linecap:butt;stroke-linejoin:miter;stroke-miterlimit:4;stroke-dasharray:none;stroke-opacity:1"
         d="m -88.385637,7.4086489 6.746329,-25.1776379 -12.626259,2.192462 -1.069078,18.1743289 z"
         id="path1995"
         inkscape:connector-curvature="0"
         sodipodi:nodetypes="ccccc" />
      <path
         style="fill:#797979;fill-opacity:1;stroke:#000000;stroke-width:2;stroke-linecap:butt;stroke-linejoin:miter;stroke-miterlimit:4;stroke-dasharray:none;stroke-opacity:1"
         d="m 83.109673,193.90349 21.473277,13.42277 1.06908,-5.87993 -14.967087,-12.82894 z"
         id="path1997"
         inkscape:connector-curvature="0"
         sodipodi:nodetypes="ccccc" />
      <path
         style="fill:#ff0000;fill-opacity:1;stroke:#800000;stroke-width:2;stroke-linecap:butt;stroke-linejoin:miter;stroke-miterlimit:4;stroke-dasharray:none;stroke-opacity:1"
         d="m -88.385637,7.4086489 6.746329,-25.1776379 7.116478,-25.503509 c 3.224734,-12.4966 19.001663,-11.613326 24.532283,-4.435658 l 133.10022,241.611646 21.473277,13.42277 1.06908,-5.87993 -14.967087,-12.82894 -133.63476,-242.680727 c -16.694403,-18.186522 -36.066304,-6.284529 -42.228586,8.018086 l -9.087164,30.468724 -1.069078,18.1743289 z"
         id="path1999"
         inkscape:connector-curvature="0"
         sodipodi:nodetypes="ccccccccccccc" />
      <path
         sodipodi:nodetypes="ccccc"
         inkscape:connector-curvature="0"
         id="path2001"
         d="m -88.385637,7.4086489 6.746329,-25.1776379 -12.626259,2.192462 -1.069078,18.1743289 z"
         style="fill:#797979;fill-opacity:1;stroke:#000000;stroke-width:2;stroke-linecap:butt;stroke-linejoin:miter;stroke-miterlimit:4;stroke-dasharray:none;stroke-opacity:1" />
      <path
         sodipodi:nodetypes="ccccc"
         inkscape:connector-curvature="0"
         id="path2003"
         d="m 83.109673,193.90349 21.473277,13.42277 1.06908,-5.87993 -14.967087,-12.82894 z"
         style="fill:#797979;fill-opacity:1;stroke:#000000;stroke-width:2;stroke-linecap:butt;stroke-linejoin:miter;stroke-miterlimit:4;stroke-dasharray:none;stroke-opacity:1" />
      <path
         sodipodi:nodetypes="ccccccccccccc"
         inkscape:connector-curvature="0"
         id="path2005"
         d="m -88.385637,7.4086489 6.746329,-25.1776379 7.116478,-25.503509 c 3.224734,-12.4966 19.001663,-11.613326 24.532283,-4.435658 l 133.10022,241.611646 21.473277,13.42277 1.06908,-5.87993 -14.967087,-12.82894 -133.63476,-242.680727 c -16.694403,-18.186522 -36.066304,-6.284529 -42.228586,8.018086 l -9.087164,30.468724 -1.069078,18.1743289 z"
         style="fill:#ff0000;fill-opacity:1;stroke:#800000;stroke-width:2;stroke-linecap:butt;stroke-linejoin:miter;stroke-miterlimit:4;stroke-dasharray:none;stroke-opacity:1" />
      <path
         style="fill:#797979;fill-opacity:1;stroke:#000000;stroke-width:2;stroke-linecap:butt;stroke-linejoin:miter;stroke-miterlimit:4;stroke-dasharray:none;stroke-opacity:1"
         d="m -88.385637,7.4086489 6.746329,-25.1776379 -12.626259,2.192462 -1.069078,18.1743289 z"
         id="path2007"
         inkscape:connector-curvature="0"
         sodipodi:nodetypes="ccccc" />
      <path
         style="fill:#797979;fill-opacity:1;stroke:#000000;stroke-width:2;stroke-linecap:butt;stroke-linejoin:miter;stroke-miterlimit:4;stroke-dasharray:none;stroke-opacity:1"
         d="m 83.109673,193.90349 21.473277,13.42277 1.06908,-5.87993 -14.967087,-12.82894 z"
         id="path2009"
         inkscape:connector-curvature="0"
         sodipodi:nodetypes="ccccc" />
      <path
         style="fill:#ff0000;fill-opacity:1;stroke:#800000;stroke-width:2;stroke-linecap:butt;stroke-linejoin:miter;stroke-miterlimit:4;stroke-dasharray:none;stroke-opacity:1"
         d="m -88.385637,7.4086489 6.746329,-25.1776379 7.116478,-25.503509 c 3.224734,-12.4966 19.001663,-11.613326 24.532283,-4.435658 l 133.10022,241.611646 21.473277,13.42277 1.06908,-5.87993 -14.967087,-12.82894 -133.63476,-242.680727 c -16.694403,-18.186522 -36.066304,-6.284529 -42.228586,8.018086 l -9.087164,30.468724 -1.069078,18.1743289 z"
         id="path2011"
         inkscape:connector-curvature="0"
         sodipodi:nodetypes="ccccccccccccc" />
      <path
         sodipodi:nodetypes="ccccc"
         inkscape:connector-curvature="0"
         id="path2013"
         d="m -88.385637,7.4086489 6.746329,-25.1776379 -12.626259,2.192462 -1.069078,18.1743289 z"
         style="fill:#797979;fill-opacity:1;stroke:#000000;stroke-width:2;stroke-linecap:butt;stroke-linejoin:miter;stroke-miterlimit:4;stroke-dasharray:none;stroke-opacity:1" />
      <path
         sodipodi:nodetypes="ccccc"
         inkscape:connector-curvature="0"
         id="path2015"
         d="m 83.109673,193.90349 21.473277,13.42277 1.06908,-5.87993 -14.967087,-12.82894 z"
         style="fill:#797979;fill-opacity:1;stroke:#000000;stroke-width:2;stroke-linecap:butt;stroke-linejoin:miter;stroke-miterlimit:4;stroke-dasharray:none;stroke-opacity:1" />
      <path
         sodipodi:nodetypes="ccccccccccccc"
         inkscape:connector-curvature="0"
         id="path2017"
         d="m -88.385637,7.4086489 6.746329,-25.1776379 7.116478,-25.503509 c 3.224734,-12.4966 19.001663,-11.613326 24.532283,-4.435658 l 133.10022,241.611646 21.473277,13.42277 1.06908,-5.87993 -14.967087,-12.82894 -133.63476,-242.680727 c -16.694403,-18.186522 -36.066304,-6.284529 -42.228586,8.018086 l -9.087164,30.468724 -1.069078,18.1743289 z"
         style="fill:#ff0000;fill-opacity:1;stroke:#800000;stroke-width:2;stroke-linecap:butt;stroke-linejoin:miter;stroke-miterlimit:4;stroke-dasharray:none;stroke-opacity:1" />
      <path
         style="fill:#797979;fill-opacity:1;stroke:#000000;stroke-width:2;stroke-linecap:butt;stroke-linejoin:miter;stroke-miterlimit:4;stroke-dasharray:none;stroke-opacity:1"
         d="m -88.385637,7.4086489 6.746329,-25.1776379 -12.626259,2.192462 -1.069078,18.1743289 z"
         id="path2019"
         inkscape:connector-curvature="0"
         sodipodi:nodetypes="ccccc" />
      <path
         style="fill:#797979;fill-opacity:1;stroke:#000000;stroke-width:2;stroke-linecap:butt;stroke-linejoin:miter;stroke-miterlimit:4;stroke-dasharray:none;stroke-opacity:1"
         d="m 83.109673,193.90349 21.473277,13.42277 1.06908,-5.87993 -14.967087,-12.82894 z"
         id="path2021"
         inkscape:connector-curvature="0"
         sodipodi:nodetypes="ccccc" />
      <path
         style="fill:#ff0000;fill-opacity:1;stroke:#800000;stroke-width:2;stroke-linecap:butt;stroke-linejoin:miter;stroke-miterlimit:4;stroke-dasharray:none;stroke-opacity:1"
         d="m -88.385637,7.4086489 6.746329,-25.1776379 7.116478,-25.503509 c 3.224734,-12.4966 19.001663,-11.613326 24.532283,-4.435658 l 133.10022,241.611646 21.473277,13.42277 1.06908,-5.87993 -14.967087,-12.82894 -133.63476,-242.680727 c -16.694403,-18.186522 -36.066304,-6.284529 -42.228586,8.018086 l -9.087164,30.468724 -1.069078,18.1743289 z"
         id="path2023"
         inkscape:connector-curvature="0"
         sodipodi:nodetypes="ccccccccccccc" />
      <path
         sodipodi:nodetypes="ccccc"
         inkscape:connector-curvature="0"
         id="path2025"
         d="m -88.385637,7.4086489 6.746329,-25.1776379 -12.626259,2.192462 -1.069078,18.1743289 z"
         style="fill:#797979;fill-opacity:1;stroke:#000000;stroke-width:2;stroke-linecap:butt;stroke-linejoin:miter;stroke-miterlimit:4;stroke-dasharray:none;stroke-opacity:1" />
      <path
         sodipodi:nodetypes="ccccc"
         inkscape:connector-curvature="0"
         id="path2027"
         d="m 83.109673,193.90349 21.473277,13.42277 1.06908,-5.87993 -14.967087,-12.82894 z"
         style="fill:#797979;fill-opacity:1;stroke:#000000;stroke-width:2;stroke-linecap:butt;stroke-linejoin:miter;stroke-miterlimit:4;stroke-dasharray:none;stroke-opacity:1" />
      <path
         sodipodi:nodetypes="ccccccccccccc"
         inkscape:connector-curvature="0"
         id="path2029"
         d="m -88.385637,7.4086489 6.746329,-25.1776379 7.116478,-25.503509 c 3.224734,-12.4966 19.001663,-11.613326 24.532283,-4.435658 l 133.10022,241.611646 21.473277,13.42277 1.06908,-5.87993 -14.967087,-12.82894 -133.63476,-242.680727 c -16.694403,-18.186522 -36.066304,-6.284529 -42.228586,8.018086 l -9.087164,30.468724 -1.069078,18.1743289 z"
         style="fill:#ff0000;fill-opacity:1;stroke:#800000;stroke-width:2;stroke-linecap:butt;stroke-linejoin:miter;stroke-miterlimit:4;stroke-dasharray:none;stroke-opacity:1" />
      <path
         style="fill:#797979;fill-opacity:1;stroke:#000000;stroke-width:2;stroke-linecap:butt;stroke-linejoin:miter;stroke-miterlimit:4;stroke-dasharray:none;stroke-opacity:1"
         d="m -88.385637,7.4086489 6.746329,-25.1776379 -12.626259,2.192462 -1.069078,18.1743289 z"
         id="path2031"
         inkscape:connector-curvature="0"
         sodipodi:nodetypes="ccccc" />
      <path
         style="fill:#797979;fill-opacity:1;stroke:#000000;stroke-width:2;stroke-linecap:butt;stroke-linejoin:miter;stroke-miterlimit:4;stroke-dasharray:none;stroke-opacity:1"
         d="m 83.109673,193.90349 21.473277,13.42277 1.06908,-5.87993 -14.967087,-12.82894 z"
         id="path2033"
         inkscape:connector-curvature="0"
         sodipodi:nodetypes="ccccc" />
      <path
         style="fill:#ff0000;fill-opacity:1;stroke:#800000;stroke-width:2;stroke-linecap:butt;stroke-linejoin:miter;stroke-miterlimit:4;stroke-dasharray:none;stroke-opacity:1"
         d="m -88.385637,7.4086489 6.746329,-25.1776379 7.116478,-25.503509 c 3.224734,-12.4966 19.001663,-11.613326 24.532283,-4.435658 l 133.10022,241.611646 21.473277,13.42277 1.06908,-5.87993 -14.967087,-12.82894 -133.63476,-242.680727 c -16.694403,-18.186522 -36.066304,-6.284529 -42.228586,8.018086 l -9.087164,30.468724 -1.069078,18.1743289 z"
         id="path2035"
         inkscape:connector-curvature="0"
         sodipodi:nodetypes="ccccccccccccc" />
      <path
         sodipodi:nodetypes="ccccc"
         inkscape:connector-curvature="0"
         id="path2037"
         d="m -88.385637,7.4086489 6.746329,-25.1776379 -12.626259,2.192462 -1.069078,18.1743289 z"
         style="fill:#797979;fill-opacity:1;stroke:#000000;stroke-width:2;stroke-linecap:butt;stroke-linejoin:miter;stroke-miterlimit:4;stroke-dasharray:none;stroke-opacity:1" />
      <path
         sodipodi:nodetypes="ccccc"
         inkscape:connector-curvature="0"
         id="path2039"
         d="m 83.109673,193.90349 21.473277,13.42277 1.06908,-5.87993 -14.967087,-12.82894 z"
         style="fill:#797979;fill-opacity:1;stroke:#000000;stroke-width:2;stroke-linecap:butt;stroke-linejoin:miter;stroke-miterlimit:4;stroke-dasharray:none;stroke-opacity:1" />
      <path
         sodipodi:nodetypes="ccccccccccccc"
         inkscape:connector-curvature="0"
         id="path2041"
         d="m -88.385637,7.4086489 6.746329,-25.1776379 7.116478,-25.503509 c 3.224734,-12.4966 19.001663,-11.613326 24.532283,-4.435658 l 133.10022,241.611646 21.473277,13.42277 1.06908,-5.87993 -14.967087,-12.82894 -133.63476,-242.680727 c -16.694403,-18.186522 -36.066304,-6.284529 -42.228586,8.018086 l -9.087164,30.468724 -1.069078,18.1743289 z"
         style="fill:#ff0000;fill-opacity:1;stroke:#800000;stroke-width:2;stroke-linecap:butt;stroke-linejoin:miter;stroke-miterlimit:4;stroke-dasharray:none;stroke-opacity:1" />
      <path
         style="fill:#797979;fill-opacity:1;stroke:#000000;stroke-width:2;stroke-linecap:butt;stroke-linejoin:miter;stroke-miterlimit:4;stroke-dasharray:none;stroke-opacity:1"
         d="m -88.385637,7.4086489 6.746329,-25.1776379 -12.626259,2.192462 -1.069078,18.1743289 z"
         id="path2043"
         inkscape:connector-curvature="0"
         sodipodi:nodetypes="ccccc" />
      <path
         style="fill:#797979;fill-opacity:1;stroke:#000000;stroke-width:2;stroke-linecap:butt;stroke-linejoin:miter;stroke-miterlimit:4;stroke-dasharray:none;stroke-opacity:1"
         d="m 83.109673,193.90349 21.473277,13.42277 1.06908,-5.87993 -14.967087,-12.82894 z"
         id="path2045"
         inkscape:connector-curvature="0"
         sodipodi:nodetypes="ccccc" />
      <path
         style="fill:#ff0000;fill-opacity:1;stroke:#800000;stroke-width:2;stroke-linecap:butt;stroke-linejoin:miter;stroke-miterlimit:4;stroke-dasharray:none;stroke-opacity:1"
         d="m -88.385637,7.4086489 6.746329,-25.1776379 7.116478,-25.503509 c 3.224734,-12.4966 19.001663,-11.613326 24.532283,-4.435658 l 133.10022,241.611646 21.473277,13.42277 1.06908,-5.87993 -14.967087,-12.82894 -133.63476,-242.680727 c -16.694403,-18.186522 -36.066304,-6.284529 -42.228586,8.018086 l -9.087164,30.468724 -1.069078,18.1743289 z"
         id="path2047"
         inkscape:connector-curvature="0"
         sodipodi:nodetypes="ccccccccccccc" />
      <path
         sodipodi:nodetypes="ccccc"
         inkscape:connector-curvature="0"
         id="path2049"
         d="m -88.385637,7.4086489 6.746329,-25.1776379 -12.626259,2.192462 -1.069078,18.1743289 z"
         style="fill:#797979;fill-opacity:1;stroke:#000000;stroke-width:2;stroke-linecap:butt;stroke-linejoin:miter;stroke-miterlimit:4;stroke-dasharray:none;stroke-opacity:1" />
      <path
         sodipodi:nodetypes="ccccc"
         inkscape:connector-curvature="0"
         id="path2051"
         d="m 83.109673,193.90349 21.473277,13.42277 1.06908,-5.87993 -14.967087,-12.82894 z"
         style="fill:#797979;fill-opacity:1;stroke:#000000;stroke-width:2;stroke-linecap:butt;stroke-linejoin:miter;stroke-miterlimit:4;stroke-dasharray:none;stroke-opacity:1" />
      <path
         sodipodi:nodetypes="ccccccccccccc"
         inkscape:connector-curvature="0"
         id="path2053"
         d="m -88.385637,7.4086489 6.746329,-25.1776379 7.116478,-25.503509 c 3.224734,-12.4966 19.001663,-11.613326 24.532283,-4.435658 l 133.10022,241.611646 21.473277,13.42277 1.06908,-5.87993 -14.967087,-12.82894 -133.63476,-242.680727 c -16.694403,-18.186522 -36.066304,-6.284529 -42.228586,8.018086 l -9.087164,30.468724 -1.069078,18.1743289 z"
         style="fill:#ff0000;fill-opacity:1;stroke:#800000;stroke-width:2;stroke-linecap:butt;stroke-linejoin:miter;stroke-miterlimit:4;stroke-dasharray:none;stroke-opacity:1" />
      <path
         style="fill:#797979;fill-opacity:1;stroke:#000000;stroke-width:2;stroke-linecap:butt;stroke-linejoin:miter;stroke-miterlimit:4;stroke-dasharray:none;stroke-opacity:1"
         d="m -88.385637,7.4086489 6.746329,-25.1776379 -12.626259,2.192462 -1.069078,18.1743289 z"
         id="path2055"
         inkscape:connector-curvature="0"
         sodipodi:nodetypes="ccccc" />
      <path
         style="fill:#797979;fill-opacity:1;stroke:#000000;stroke-width:2;stroke-linecap:butt;stroke-linejoin:miter;stroke-miterlimit:4;stroke-dasharray:none;stroke-opacity:1"
         d="m 83.109673,193.90349 21.473277,13.42277 1.06908,-5.87993 -14.967087,-12.82894 z"
         id="path2057"
         inkscape:connector-curvature="0"
         sodipodi:nodetypes="ccccc" />
    </g>
  </g>
</svg>
