<?xml version="1.0" encoding="UTF-8" standalone="no"?>
<!-- Created with Inkscape (http://www.inkscape.org/) -->

<svg
   xmlns:dc="http://purl.org/dc/elements/1.1/"
   xmlns:cc="http://creativecommons.org/ns#"
   xmlns:rdf="http://www.w3.org/1999/02/22-rdf-syntax-ns#"
   xmlns:svg="http://www.w3.org/2000/svg"
   xmlns="http://www.w3.org/2000/svg"
   xmlns:sodipodi="http://sodipodi.sourceforge.net/DTD/sodipodi-0.dtd"
   xmlns:inkscape="http://www.inkscape.org/namespaces/inkscape"
   width="210mm"
   height="210mm"
   viewBox="0 0 210 210"
   version="1.1"
   id="svg1445"
   inkscape:version="0.92.4 (5da689c313, 2019-01-14)"
   sodipodi:docname="bullet.svg">
  <defs
     id="defs1439" />
  <sodipodi:namedview
     id="base"
     pagecolor="#ffffff"
     bordercolor="#666666"
     borderopacity="1.0"
     inkscape:pageopacity="0.0"
     inkscape:pageshadow="2"
     inkscape:zoom="0.7"
     inkscape:cx="429.75001"
     inkscape:cy="419.16186"
     inkscape:document-units="mm"
     inkscape:current-layer="layer1"
     showgrid="false"
     inkscape:window-width="1920"
     inkscape:window-height="1001"
     inkscape:window-x="-9"
     inkscape:window-y="-9"
     inkscape:window-maximized="1" />
  <metadata
     id="metadata1442">
    <rdf:RDF>
      <cc:Work
         rdf:about="">
        <dc:format>image/svg+xml</dc:format>
        <dc:type
           rdf:resource="http://purl.org/dc/dcmitype/StillImage" />
        <dc:title></dc:title>
      </cc:Work>
    </rdf:RDF>
  </metadata>
  <g
     inkscape:label="Capa 1"
     inkscape:groupmode="layer"
     id="layer1"
     transform="translate(0,-87)">
    <g
       id="g2012"
       transform="translate(-13.162208,2.6666667e-6)">
      <path
         sodipodi:nodetypes="scsscssss"
         inkscape:connector-curvature="0"
         style="fill:#ffd355;fill-opacity:1;stroke:#af8300;stroke-width:3.4395833;stroke-linecap:round;stroke-linejoin:round;stroke-miterlimit:4;stroke-dasharray:none;stroke-opacity:1;paint-order:normal"
         d="m 78.311133,170.83333 h 9.812807 c 0,0 -0.191296,3.37154 -0.191296,7.55951 v 27.2143 c 0,4.18798 0.191296,7.55952 0.191296,7.55952 h -9.812807 c -4.187971,0 -7.559516,-3.37154 -7.559516,-7.55952 v -27.2143 c 0,-4.18797 3.371545,-7.55951 7.559516,-7.55951 z"
         id="path1993" />
      <g
         transform="translate(0,5e-6)"
         id="g2003" />
      <g
         id="g2019">
        <path
           id="rect1990"
           d="m 78.311133,170.83333 h 53.377737 c 4.18798,0 7.55952,3.37154 7.55952,7.55951 v 27.2143 c 0,4.18798 -3.37154,7.55952 -7.55952,7.55952 H 78.311133 c -4.187971,0 -7.559516,-3.37154 -7.559516,-7.55952 v -27.2143 c 0,-4.18797 3.371545,-7.55951 7.559516,-7.55951 z"
           style="fill:#ffd355;fill-opacity:1;stroke:#af8300;stroke-width:3.4395833;stroke-linecap:round;stroke-linejoin:round;stroke-miterlimit:4;stroke-dasharray:none;stroke-opacity:1;paint-order:normal"
           inkscape:connector-curvature="0"
           sodipodi:nodetypes="sssssssss"
           transform="translate(0,4.6666667e-6)" />
        <path
           id="path1995"
           d="m 78.311133,170.83333 h 9.812807 c 0,0 -0.191296,3.37154 -0.191296,7.55951 v 27.2143 c 0,4.18798 0.191296,7.55952 0.191296,7.55952 h -9.812807 c -4.187971,0 -7.559516,-3.37154 -7.559516,-7.55952 v -27.2143 c 0,-4.18797 3.371545,-7.55951 7.559516,-7.55951 z"
           style="fill:#ffd355;fill-opacity:1;stroke:#af8300;stroke-width:3.4395833;stroke-linecap:round;stroke-linejoin:round;stroke-miterlimit:4;stroke-dasharray:none;stroke-opacity:1;paint-order:normal"
           inkscape:connector-curvature="0"
           sodipodi:nodetypes="scsscssss"
           transform="translate(0,4.6666667e-6)" />
        <path
           style="fill:#ffd355;fill-opacity:1;stroke:#af8300;stroke-width:3.4395833;stroke-linecap:round;stroke-linejoin:round;stroke-miterlimit:4;stroke-dasharray:none;stroke-opacity:1;paint-order:normal"
           d="m 165.5728,192.66817 c 0,10.62784 -23.25609,20.49849 -33.88393,20.49849 v -42.33333 c 10.62784,0 33.88393,11.207 33.88393,21.83484 z"
           id="path1999"
           inkscape:connector-curvature="0"
           sodipodi:nodetypes="sccs" />
      </g>
    </g>
  </g>
</svg>
